0
SECTION
2
HEADER
9
$INSUNITS
70
4
9
$ACADVER
1
AC1014
9
$HANDSEED
5
FFFF
0
ENDSEC
0
SECTION
2
TABLES
0
TABLE
2
VPORT
5
8
100
AcDbSymbolTable
0
ENDTAB
0
TABLE
2
LTYPE
5
5
100
AcDbSymbolTable
0
LTYPE
5
14
100
AcDbSymbolTableRecord
100
AcDbLinetypeTableRecord
2
BYBLOCK
70
0
0
LTYPE
5
15
100
AcDbSymbolTableRecord
100
AcDbLinetypeTableRecord
2
BYLAYER
70
0
0
LTYPE
5
16
100
AcDbSymbolTableRecord
100
AcDbLinetypeTableRecord
2
DASHED
70
0
3
Dashed __ __ __ __ __ __ __ __ __ __ __ __ __ _
72
65
73
2
40
0.75
49
0.5
74
0
49
-0.25
74
0
0
ENDTAB
0
TABLE
2
LAYER
5
2
100
AcDbSymbolTable
70
3
0
LAYER
5
50
100
AcDbSymbolTableRecord
100
AcDbLayerTableRecord
2
1
70
0
62
7
6
DASHED
0
LAYER
5
51
100
AcDbSymbolTableRecord
100
AcDbLayerTableRecord
2
0
70
0
62
7
6
CONTINUOUS
0
ENDTAB
0
TABLE
2
STYLE
5
3
100
AcDbSymbolTable
70
1
0
STYLE
5
11
100
AcDbSymbolTableRecord
100
AcDbTextStyleTableRecord
2
STANDARD
70
0
0
ENDTAB
0
TABLE
2
VIEW
5
6
100
AcDbSymbolTable
70
0
0
ENDTAB
0
TABLE
2
UCS
5
7
100
AcDbSymbolTable
70
0
0
ENDTAB
0
TABLE
2
APPID
5
9
100
AcDbSymbolTable
70
2
0
APPID
5
12
100
AcDbSymbolTableRecord
100
AcDbRegAppTableRecord
2
ACAD
70
0
0
ENDTAB
0
TABLE
2
DIMSTYLE
5
A
100
AcDbSymbolTable
70
1
0
ENDTAB
0
TABLE
2
BLOCK_RECORD
5
1
100
AcDbSymbolTable
70
1
0
BLOCK_RECORD
5
1F
100
AcDbSymbolTableRecord
100
AcDbBlockTableRecord
2
*MODEL_SPACE
0
BLOCK_RECORD
5
1B
100
AcDbSymbolTableRecord
100
AcDbBlockTableRecord
2
*PAPER_SPACE
0
ENDTAB
0
ENDSEC
0
SECTION
2
BLOCKS
0
BLOCK
5
20
100
AcDbEntity
100
AcDbBlockBegin
2
*MODEL_SPACE
0
ENDBLK
5
21
100
AcDbEntity
100
AcDbBlockEnd
0
BLOCK
5
1C
100
AcDbEntity
100
AcDbBlockBegin
2
*PAPER_SPACE
0
ENDBLK
5
1D
100
AcDbEntity
100
AcDbBlockEnd
0
ENDSEC
0
SECTION
2
ENTITIES
0
LWPOLYLINE
5
100
100
AcDbEntity
8
0
100
AcDbPolyline
90
52
70
1
43
0.0
10
93.749999999999986
20
18.369834851851561
10
93.750000000000014
20
64.184917425925775
10
89.750000000000028
20
64.184917425925789
10
89.750000000000028
20
79.184917425925775
10
93.750000000000028
20
79.184917425925775
10
93.75
20
125
10
58.125000000000185
20
124.99999999999999
10
58.125000000000178
20
120.99999999999997
10
43.125000000000142
20
120.99999999999997
10
43.125000000000142
20
124.99999999999999
10
7.5000000000003597
20
124.99999999999999
10
7.5000000000003544
20
120.99999999999997
10
-7.499999999999666
20
120.99999999999997
10
-7.4999999999996589
20
124.99999999999999
10
-43.124999999999794
20
124.99999999999999
10
-43.124999999999787
20
120.99999999999997
10
-58.124999999999815
20
120.99999999999997
10
-58.124999999999794
20
124.99999999999999
10
-93.75
20
125
10
-93.750000000000028
20
79.184917425925789
10
-89.750000000000028
20
79.184917425925789
10
-89.750000000000028
20
64.184917425925789
10
-93.750000000000014
20
64.184917425925775
10
-93.749999999999986
20
18.369834851851571
10
-89.749999999999972
20
18.369834851851575
10
-89.749999999999972
20
3.3698348518515853
10
-93.749999999999986
20
3.369834851851587
10
-93.749999999999986
20
-42.445247722222639
10
-89.749999999999972
20
-42.445247722222639
10
-89.749999999999972
20
-57.445247722222639
10
-93.749999999999986
20
-57.445247722222639
10
-93.749999999999943
20
-124.99999999999999
10
-58.124999999999829
20
-124.99999999999999
10
-58.124999999999851
20
-120.99999999999997
10
-43.12499999999978
20
-120.99999999999997
10
-43.124999999999787
20
-124.99999999999999
10
-7.4999999999996758
20
-124.99999999999999
10
-7.4999999999996811
20
-120.99999999999997
10
7.5000000000003384
20
-120.99999999999997
10
7.5000000000003428
20
-124.99999999999999
10
43.125000000000128
20
-124.99999999999999
10
43.125000000000128
20
-120.99999999999997
10
58.125000000000142
20
-120.99999999999997
10
58.125000000000142
20
-124.99999999999999
10
93.750000000000014
20
-125
10
93.749999999999986
20
-57.445247722222639
10
89.749999999999972
20
-57.445247722222661
10
89.749999999999972
20
-42.445247722222646
10
93.749999999999986
20
-42.445247722222646
10
93.749999999999986
20
3.3698348518515697
10
89.749999999999972
20
3.3698348518515715
10
89.749999999999972
20
18.369834851851561
0
ENDSEC
0
SECTION
2
OBJECTS
0
DICTIONARY
5
C
100
AcDbDictionary
3
ACAD_GROUP
350
D
3
ACAD_MLINESTYLE
350
17
0
DICTIONARY
5
D
100
AcDbDictionary
0
DICTIONARY
5
1A
330
C
100
AcDbDictionary
0
DICTIONARY
5
17
100
AcDbDictionary
0
ENDSEC
0
EOF
